<svg id="Line" height="512" viewBox="0 0 64 64" width="512" xmlns="http://www.w3.org/2000/svg"><g fill="#c4a2fc"><path d="m62.64 30.73-24-20a1 1 0 0 0 -1.28 0l-24 20a1 1 0 0 0 .64 1.77h48a1 1 0 0 0 .64-1.77z"/><path d="m21 34.5v23a3 3 0 0 0 3 3h28a3 3 0 0 0 3-3v-23zm17 19a8 8 0 1 1 8-8 8 8 0 0 1 -8 8z"/><circle cx="38" cy="45.5" r="6"/></g><path d="m50.6 33.7-8-6a1 1 0 0 0 -.68-.2l-12.92 1.08v-2.66l5.08-.42a1 1 0 0 0 .92-1v-8a1 1 0 0 0 -.92-1l-5.08-.42v-5a4 4 0 1 0 -6 0v4.46l-12.92-1.04a1 1 0 0 0 -.68.2l-8 6a1 1 0 0 0 0 1.6l8 6a1 1 0 0 0 .6.2h.08l12.92-1.08v2.66l-5.08.42a1 1 0 0 0 -.92 1v8a1 1 0 0 0 .92 1l5.08.42v6.58h-7a1 1 0 0 0 -.78.38l-4 5a1 1 0 0 0 .78 1.62h28a1 1 0 0 0 .78-1.62l-4-5a1 1 0 0 0 -.78-.38h-7v-6.08l12.92 1.08a1 1 0 0 0 .68-.2l8-6a1 1 0 0 0 0-1.6zm-24.6-28.2a2 2 0 1 1 -2 2 2 2 0 0 1 2-2zm-1 5.86a3.64 3.64 0 0 0 2 0v3.55l-2-.16zm-21.33 9.14 6.63-5 22.7 1.92v6.16l-22.7 1.89zm21.33 5.75 2-.16v2.66l-2 .16zm12.92 25.25h-23.84l2.4-3h19zm-10.92-5h-2v-6.41l2 .16zm14.7-7-22.7-1.92v-6.16l22.7-1.89 6.63 5z" fill="#151a6a"/></svg>