<?xml version="1.0" encoding="utf-8"?>
<!-- Generated by IcoMoon.io -->
<!DOCTYPE svg PUBLIC "-//W3C//DTD SVG 1.1//EN" "http://www.w3.org/Graphics/SVG/1.1/DTD/svg11.dtd">
<svg version="1.1" xmlns="http://www.w3.org/2000/svg" xmlns:xlink="http://www.w3.org/1999/xlink" width="448" height="448" viewBox="0 0 448 448"><g id="icomoon-ignore">
</g>
<path d="M160 96v-32h-32v32h32zM192 128v-32h-32v32h32zM160 160v-32h-32v32h32zM192 192v-32h-32v32h32zM367 95q7 7 12 19t5 22v288q0 10-7 17t-17 7h-336q-10 0-17-7t-7-17v-400q0-10 7-17t17-7h224q10 0 22 5t19 12zM256 34v94h94q-2.5-7.25-5.5-10.25l-78.25-78.25q-3-3-10.25-5.5zM352 416v-256h-104q-10 0-17-7t-7-17v-104h-32v32h-32v-32h-128v384h320zM195.25 235.75l26.75 87.25q2 6.75 2 13 0 20.75-18.125 34.375t-45.875 13.625-45.875-13.625-18.125-34.375q0-6.25 2-13 5.25-15.75 30-99v-32h32v32h19.75q5.5 0 9.75 3.25t5.75 8.5zM160 352q13.25 0 22.625-4.75t9.375-11.25-9.375-11.25-22.625-4.75-22.625 4.75-9.375 11.25 9.375 11.25 22.625 4.75z"></path>
</svg>
