<?xml version="1.0" encoding="utf-8"?>
<!-- Generated by IcoMoon.io -->
<!DOCTYPE svg PUBLIC "-//W3C//DTD SVG 1.1//EN" "http://www.w3.org/Graphics/SVG/1.1/DTD/svg11.dtd">
<svg version="1.1" xmlns="http://www.w3.org/2000/svg" xmlns:xlink="http://www.w3.org/1999/xlink" width="448" height="448" viewBox="0 0 448 448"><g id="icomoon-ignore">
</g>
<path d="M367 95q7 7 12 19t5 22v288q0 10-7 17t-17 7h-336q-10 0-17-7t-7-17v-400q0-10 7-17t17-7h224q10 0 22 5t19 12zM256 34v94h94q-2.5-7.25-5.5-10.25l-78.25-78.25q-3-3-10.25-5.5zM352 416v-256h-104q-10 0-17-7t-7-17v-104h-192v384h320zM223.5 267.75q8.25 6.5 21 14 14.75-1.75 29.25-1.75 36.75 0 44.25 12.25 4 5.5 0.5 13 0 0.25-0.25 0.5l-0.5 0.5v0.25q-1.5 9.5-17.75 9.5-12 0-28.75-5t-32.5-13.25q-55.25 6-98 20.75-38.25 65.5-60.5 65.5-3.75 0-7-1.75l-6-3q-0.25-0.25-1.5-1.25-2.5-2.5-1.5-9 2.25-10 14-22.875t33-24.125q3.5-2.25 5.75 1.5 0.5 0.5 0.5 1 13-21.25 26.75-49.25 17-34 26-65.5-6-20.5-7.625-39.875t1.625-31.875q2.75-10 10.5-10h5.5q5.75 0 8.75 3.75 4.5 5.25 2.25 17-0.5 1.5-1 2 0.25 0.75 0.25 2v7.5q-0.5 30.75-3.5 48 13.75 41 36.5 59.5zM79.5 370.5q13-6 34.25-39.5-12.75 10-21.875 21t-12.375 18.5zM179 140.5q-3.75 10.5-0.5 33 0.25-1.75 1.75-11 0-0.75 1.75-10.75 0.25-1 1-2-0.25-0.25-0.25-0.5t-0.125-0.375-0.125-0.375q-0.25-5.5-3.25-9 0 0.25-0.25 0.5v0.5zM148 305.75q33.75-13.5 71-20.25-0.5-0.25-3.25-2.375t-4-3.375q-19-16.75-31.75-44-6.75 21.5-20.75 49.25-7.5 14-11.25 20.75zM309.5 301.75q-6-6-35-6 19 7 31 7 3.5 0 4.5-0.25 0-0.25-0.5-0.75z"></path>
</svg>
