<?xml version="1.0" encoding="iso-8859-1"?>
<!-- Generator: Adobe Illustrator 19.0.0, SVG Export Plug-In . SVG Version: 6.00 Build 0)  -->
<svg version="1.1" id="Layer_1" xmlns="http://www.w3.org/2000/svg" xmlns:xlink="http://www.w3.org/1999/xlink" x="0px" y="0px"
	 viewBox="0 0 512.001 512.001" style="enable-background:new 0 0 512.001 512.001;" xml:space="preserve">
<g>
	<g>
		<rect x="187.316" y="437.049" width="137.356" height="18.763"/>
	</g>
</g>
<g>
	<g>
		<path d="M363.422,0H148.579l-12.487,56.192H96.775v81.198h25.439l3.667,72.253l8.741,174.813l6.309,127.545h230.127l6.444-127.535
			l8.741-174.831l3.557-72.246h25.425V56.192H375.91L363.422,0z M163.629,18.763h184.741l8.317,37.429H155.312L163.629,18.763z
			 M353.22,493.237H158.79l-4.941-99.865h204.417L353.22,493.237z M367.505,208.705l-8.294,165.906H152.916l-8.297-165.912
			l-3.62-71.309h105.62v62.403h-43.705v156.12h106.173v-156.12h-43.705V137.39h105.635L367.505,208.705z M221.677,243.496v-24.941
			h68.647v24.941H221.677z M290.324,262.259v74.89h-68.647v-74.89H290.324z M396.464,118.627H115.538V74.955h280.926V118.627z"/>
	</g>
</g>
<g>
	<g>
		<rect x="237.275" y="293.451" width="37.461" height="18.763"/>
	</g>
</g>
<g>
	<g>
		<rect x="168.59" y="156.082" width="24.973" height="18.763"/>
	</g>
</g>
<g>
	<g>
		<rect x="318.43" y="156.082" width="24.973" height="18.763"/>
	</g>
</g>
<g>
</g>
<g>
</g>
<g>
</g>
<g>
</g>
<g>
</g>
<g>
</g>
<g>
</g>
<g>
</g>
<g>
</g>
<g>
</g>
<g>
</g>
<g>
</g>
<g>
</g>
<g>
</g>
<g>
</g>
</svg>
