<?xml version="1.0" encoding="utf-8"?>
<!-- Generated by IcoMoon.io -->
<!DOCTYPE svg PUBLIC "-//W3C//DTD SVG 1.1//EN" "http://www.w3.org/Graphics/SVG/1.1/DTD/svg11.dtd">
<svg version="1.1" xmlns="http://www.w3.org/2000/svg" xmlns:xlink="http://www.w3.org/1999/xlink" width="18" height="18" viewBox="0 0 18 18">
<path d="M6.429 3.857v-1.286h-1.286v1.286h1.286zM7.714 5.143v-1.286h-1.286v1.286h1.286zM6.429 6.429v-1.286h-1.286v1.286h1.286zM7.714 7.714v-1.286h-1.286v1.286h1.286zM14.746 3.817q0.281 0.281 0.482 0.763t0.201 0.884v11.571q0 0.402-0.281 0.683t-0.683 0.281h-13.5q-0.402 0-0.683-0.281t-0.281-0.683v-16.071q0-0.402 0.281-0.683t0.683-0.281h9q0.402 0 0.884 0.201t0.763 0.482zM10.286 1.366v3.777h3.777q-0.1-0.291-0.221-0.412l-3.144-3.144q-0.121-0.121-0.412-0.221zM14.143 16.714v-10.286h-4.179q-0.402 0-0.683-0.281t-0.281-0.683v-4.179h-1.286v1.286h-1.286v-1.286h-5.143v15.429h12.857zM7.845 9.472l1.075 3.506q0.080 0.271 0.080 0.522 0 0.834-0.728 1.381t-1.843 0.547-1.843-0.547-0.728-1.381q0-0.251 0.080-0.522 0.211-0.633 1.205-3.978v-1.286h1.286v1.286h0.794q0.221 0 0.392 0.131t0.231 0.342zM6.429 14.143q0.532 0 0.909-0.191t0.377-0.452-0.377-0.452-0.909-0.191-0.909 0.191-0.377 0.452 0.377 0.452 0.909 0.191z" fill="#222222"></path>
</svg>
