<?xml version="1.0" encoding="utf-8"?>
<!-- Generated by IcoMoon.io -->
<!DOCTYPE svg PUBLIC "-//W3C//DTD SVG 1.1//EN" "http://www.w3.org/Graphics/SVG/1.1/DTD/svg11.dtd">
<svg version="1.1" xmlns="http://www.w3.org/2000/svg" xmlns:xlink="http://www.w3.org/1999/xlink" width="18" height="18" viewBox="0 0 18 18">
<path d="M14.746 3.817q0.281 0.281 0.482 0.763t0.201 0.884v11.571q0 0.402-0.281 0.683t-0.683 0.281h-13.5q-0.402 0-0.683-0.281t-0.281-0.683v-16.071q0-0.402 0.281-0.683t0.683-0.281h9q0.402 0 0.884 0.201t0.763 0.482zM10.286 1.366v3.777h3.777q-0.1-0.291-0.221-0.412l-3.144-3.144q-0.121-0.121-0.412-0.221zM14.143 16.714v-10.286h-4.179q-0.402 0-0.683-0.281t-0.281-0.683v-4.179h-7.714v15.429h12.857zM8.98 10.758q0.331 0.261 0.844 0.563 0.593-0.070 1.175-0.070 1.477 0 1.778 0.492 0.161 0.221 0.020 0.522 0 0.010-0.010 0.020l-0.020 0.020v0.010q-0.060 0.382-0.713 0.382-0.482 0-1.155-0.201t-1.306-0.532q-2.22 0.241-3.938 0.834-1.537 2.632-2.431 2.632-0.151 0-0.281-0.070l-0.241-0.121q-0.010-0.010-0.060-0.050-0.1-0.1-0.060-0.362 0.090-0.402 0.563-0.919t1.326-0.969q0.141-0.090 0.231 0.060 0.020 0.020 0.020 0.040 0.522-0.854 1.075-1.979 0.683-1.366 1.045-2.632-0.241-0.824-0.306-1.602t0.065-1.281q0.11-0.402 0.422-0.402h0.221q0.231 0 0.352 0.151 0.181 0.211 0.090 0.683-0.020 0.060-0.040 0.080 0.010 0.030 0.010 0.080v0.301q-0.020 1.235-0.141 1.929 0.552 1.647 1.467 2.391zM3.194 14.886q0.522-0.241 1.376-1.587-0.512 0.402-0.879 0.844t-0.497 0.743zM7.192 5.645q-0.151 0.422-0.020 1.326 0.010-0.070 0.070-0.442 0-0.030 0.070-0.432 0.010-0.040 0.040-0.080-0.010-0.010-0.010-0.020t-0.005-0.015-0.005-0.015q-0.010-0.221-0.131-0.362 0 0.010-0.010 0.020v0.020zM5.946 12.285q1.356-0.542 2.853-0.814-0.020-0.010-0.131-0.095t-0.161-0.136q-0.763-0.673-1.276-1.768-0.271 0.864-0.834 1.979-0.301 0.563-0.452 0.834zM12.435 12.124q-0.241-0.241-1.406-0.241 0.763 0.281 1.246 0.281 0.141 0 0.181-0.010 0-0.010-0.020-0.030z" fill="#222222"></path>
</svg>
