<?xml version="1.0" encoding="utf-8"?>
<!-- Generated by IcoMoon.io -->
<!DOCTYPE svg PUBLIC "-//W3C//DTD SVG 1.1//EN" "http://www.w3.org/Graphics/SVG/1.1/DTD/svg11.dtd">
<svg version="1.1" xmlns="http://www.w3.org/2000/svg" xmlns:xlink="http://www.w3.org/1999/xlink" width="18" height="18" viewBox="0 0 18 18">
<path d="M14.625 15.75h-11.25v-2.25l3.375-5.625 4.623 5.625 3.252-2.25v4.5z" fill="#222222"></path>
<path d="M14.625 8.438c0 0.932-0.756 1.688-1.688 1.688s-1.688-0.756-1.688-1.688 0.755-1.688 1.688-1.688c0.932 0 1.688 0.756 1.688 1.688z" fill="#222222"></path>
<path d="M16.133 4.027c-0.39-0.532-0.935-1.155-1.532-1.753s-1.22-1.142-1.753-1.532c-0.907-0.665-1.346-0.742-1.598-0.742h-8.719c-0.775 0-1.406 0.631-1.406 1.406v15.188c0 0.775 0.631 1.406 1.406 1.406h12.938c0.775 0 1.406-0.631 1.406-1.406v-10.969c0-0.252-0.077-0.692-0.742-1.598zM13.805 3.070c0.54 0.54 0.963 1.027 1.276 1.43h-2.706v-2.706c0.404 0.313 0.891 0.736 1.43 1.276zM15.75 16.594c0 0.152-0.129 0.281-0.281 0.281h-12.938c-0.152 0-0.281-0.129-0.281-0.281v-15.188c0-0.152 0.129-0.281 0.281-0.281 0 0 8.718-0 8.719 0v3.938c0 0.311 0.252 0.563 0.563 0.563h3.938v10.969z" fill="#222222"></path>
</svg>
